# xmcd CD database file
#
# Track frame offsets:
#	150
#	19950
#	41025
#	62700
#	78600
#	104700
#	112500
#	128550
#	144375
#	159000
#	173250
#	191325
#	212475
#	225375
#	239175
#	260250
#
# Disc length: 3687 seconds
#
# Revision: 1
# Processed by: cddbd v1.5.1PL0 Copyright (c) Steve Scherf et al.
# Submitted via: freeDBTagger 0.5
#
DISCID=c80e6510
DTITLE=冨田勲 - 新日本紀行
DYEAR=1900
DGENRE=classical
TTITLE0=新日本紀行・日本の素顔
TTITLE1=ジャングル大帝
TTITLE2=勝海舟
TTITLE3=文吾捕物絵図
TTITLE4=学校
TTITLE5=蒼き狼の伝説
TTITLE6=国境のない伝記
TTITLE7=二つの橋
TTITLE8=リボンの騎士
TTITLE9=花の生涯
TTITLE10=天と地と
TTITLE11=新平家物語
TTITLE12=徳川家康
TTITLE13=決断
TTITLE14=多様な国土
TTITLE15=青い地球は誰のもの
EXTD=
EXTT0=
EXTT1=
EXTT2=
EXTT3=
EXTT4=
EXTT5=
EXTT6=
EXTT7=
EXTT8=
EXTT9=
EXTT10=
EXTT11=
EXTT12=
EXTT13=
EXTT14=
EXTT15=
PLAYORDER=
